<svg width="16" height="16" viewBox="0 0 16 16" fill="none" xmlns="http://www.w3.org/2000/svg">
<g clip-path="url(#clip0_79_111)">
<path d="M15.7072 7.626C16.0978 8.016 16.0978 8.65 15.7072 9.04L12.1558 12.5913C11.1505 13.5967 9.51651 13.5967 8.51118 12.5913L7.07518 11.1553C6.84984 10.9307 6.48384 10.9307 6.25851 11.1553L3.04051 14.3733L3.92851 15.2607C4.20118 15.5333 4.00785 15.9993 3.62251 15.9993H0.727178C0.325845 15.9993 -0.000154942 15.674 -0.000154942 15.272V12.3773C-0.000154942 11.992 0.465845 11.7987 0.738512 12.0713L1.62651 12.9593L4.84451 9.74133C5.84918 8.736 7.48451 8.736 8.48918 9.74133L9.92518 11.1773C10.1438 11.3953 10.5225 11.3953 10.7418 11.1773L14.2932 7.626C14.6838 7.23533 15.3165 7.23533 15.7072 7.626ZM15.2732 0H12.4938C12.0658 0 11.8512 0.517333 12.1538 0.82L12.9598 1.626L9.74185 4.844C9.51651 5.06867 9.15051 5.06867 8.92518 4.844L7.48918 3.408C6.48451 2.40267 4.84918 2.40267 3.84451 3.408L0.292512 6.95933C-0.0981549 7.34933 -0.0981549 7.98333 0.292512 8.37333C0.487845 8.56867 0.743845 8.666 0.999845 8.666C1.25585 8.666 1.51185 8.56867 1.70718 8.37333L5.25851 4.822C5.47651 4.604 5.85651 4.604 6.07518 4.822L7.51118 6.258C8.51585 7.26333 10.1505 7.26333 11.1558 6.258L14.3738 3.04L15.1798 3.846C15.4825 4.14867 15.9998 3.934 15.9998 3.506V0.727333C15.9998 0.325333 15.6752 0 15.2732 0Z" fill="#8589A3"/>
</g>
<defs>
<clipPath id="clip0_79_111">
<rect width="16" height="16" fill="white"/>
</clipPath>
</defs>
</svg>
