<svg width="16" height="16" viewBox="0 0 16 16" fill="none" xmlns="http://www.w3.org/2000/svg">
<path d="M14.6467 12.22C14.6467 12.46 14.5934 12.7066 14.48 12.9466C14.3667 13.1866 14.22 13.4133 14.0267 13.6266C13.7 13.9866 13.34 14.2466 12.9334 14.4133C12.5334 14.58 12.1 14.6666 11.6334 14.6666C10.9534 14.6666 10.2267 14.5066 9.46004 14.18C8.69337 13.8533 7.92671 13.4133 7.16671 12.86C6.40004 12.3 5.67337 11.68 4.98004 10.9933C4.29337 10.3 3.67337 9.5733 3.12004 8.8133C2.57337 8.0533 2.13337 7.2933 1.81337 6.53997C1.49337 5.77997 1.33337 5.0533 1.33337 4.35997C1.33337 3.90663 1.41337 3.4733 1.57337 3.0733C1.73337 2.66663 1.98671 2.2933 2.34004 1.95997C2.76671 1.53997 3.23337 1.3333 3.72671 1.3333C3.91337 1.3333 4.10004 1.3733 4.26671 1.4533C4.44004 1.5333 4.59337 1.6533 4.71337 1.82663L6.26004 4.00663C6.38004 4.1733 6.46671 4.32663 6.52671 4.4733C6.58671 4.6133 6.62004 4.7533 6.62004 4.87997C6.62004 5.03997 6.57337 5.19997 6.48004 5.3533C6.39337 5.50663 6.26671 5.66663 6.10671 5.82663L5.60004 6.3533C5.52671 6.42663 5.49337 6.5133 5.49337 6.61997C5.49337 6.6733 5.50004 6.71997 5.51337 6.7733C5.53337 6.82663 5.55337 6.86663 5.56671 6.90663C5.68671 7.12663 5.89337 7.4133 6.18671 7.75997C6.48671 8.10663 6.80671 8.45997 7.15337 8.8133C7.51337 9.16663 7.86004 9.4933 8.21337 9.7933C8.56004 10.0866 8.84671 10.2866 9.07337 10.4066C9.10671 10.42 9.14671 10.44 9.19337 10.46C9.24671 10.48 9.30004 10.4866 9.36004 10.4866C9.47337 10.4866 9.56004 10.4466 9.63337 10.3733L10.14 9.8733C10.3067 9.70663 10.4667 9.57997 10.62 9.49997C10.7734 9.40663 10.9267 9.35997 11.0934 9.35997C11.22 9.35997 11.3534 9.38663 11.5 9.44663C11.6467 9.50663 11.8 9.5933 11.9667 9.70663L14.1734 11.2733C14.3467 11.3933 14.4667 11.5333 14.54 11.7C14.6067 11.8666 14.6467 12.0333 14.6467 12.22Z" stroke="#FF6E4A" stroke-width="1.6" stroke-miterlimit="10"/>
</svg>
