<svg width="20" height="20" viewBox="0 0 20 20" fill="none" xmlns="http://www.w3.org/2000/svg">
<g clip-path="url(#clip0_1_295)">
<path d="M17.9383 6.90327L11.6142 0.732433C11.065 0.182433 10.275 -0.0867336 9.50749 0.0232664L3.76749 0.808266C3.31166 0.870766 2.99249 1.29077 3.05499 1.7466C3.11749 2.20243 3.53666 2.52077 3.99416 2.4591L9.73499 1.6741C9.98999 1.6391 10.2533 1.7266 10.4442 1.91743L16.7692 8.08827C17.64 8.9591 17.725 10.3216 17.0383 11.2941C16.8433 10.9049 16.6025 10.5341 16.2792 10.2108L10.05 4.0341C9.50166 3.48577 8.71916 3.2216 7.94332 3.32493L2.20249 4.10993C1.82416 4.1616 1.52916 4.4641 1.48749 4.8441L0.849991 10.6074C0.766658 11.3666 1.02832 12.1108 1.56999 12.6516L7.74999 18.7791C8.53666 19.5666 9.58249 19.9991 10.695 19.9991H10.7092C11.8275 19.9958 12.8758 19.5558 13.6617 18.7599L16.3008 16.0866C17.0733 15.3041 17.4617 14.2874 17.4867 13.2633L17.9675 12.7833C19.5717 11.1583 19.5625 8.52327 17.9408 6.90243L17.9383 6.90327ZM4.99999 8.33327C4.53999 8.33327 4.16666 7.95993 4.16666 7.49993C4.17166 6.40993 5.82832 6.41077 5.83332 7.49993C5.83332 7.95993 5.45999 8.33327 4.99999 8.33327Z" fill="#FF6E4A"/>
</g>
<defs>
<clipPath id="clip0_1_295">
<rect width="20" height="20" fill="white"/>
</clipPath>
</defs>
</svg>
