<svg width="20" height="20" viewBox="0 0 20 20" fill="none" xmlns="http://www.w3.org/2000/svg">
<path d="M9.16667 10.8333H2.5C1.11917 10.8333 0 11.9525 0 13.3333V17.5C0 18.8808 1.11917 20 2.5 20H9.16667V10.8333ZM2.91667 14.1667C2.91667 13.7067 3.29 13.3333 3.75 13.3333H5.41667C5.87667 13.3333 6.25 13.7067 6.25 14.1667C6.25 14.6267 5.87667 15 5.41667 15H3.75C3.29 15 2.91667 14.6267 2.91667 14.1667ZM17.5 10.8333H10.8333V20H17.5C18.8808 20 20 18.8808 20 17.5V13.3333C20 11.9525 18.8808 10.8333 17.5 10.8333ZM16.25 15H14.5833C14.1233 15 13.75 14.6267 13.75 14.1667C13.75 13.7067 14.1233 13.3333 14.5833 13.3333H16.25C16.71 13.3333 17.0833 13.7067 17.0833 14.1667C17.0833 14.6267 16.71 15 16.25 15ZM12.5 0H7.5C6.11917 0 5 1.11917 5 2.5V9.16667H15V2.5C15 1.11917 13.8808 0 12.5 0ZM10.8333 4.16667H9.16667C8.70667 4.16667 8.33333 3.79333 8.33333 3.33333C8.33333 2.87333 8.70667 2.5 9.16667 2.5H10.8333C11.2933 2.5 11.6667 2.87333 11.6667 3.33333C11.6667 3.79333 11.2933 4.16667 10.8333 4.16667Z" fill="#FF6E4A"/>
</svg>
